<mxfile host="65bd71144e">
    <diagram id="9pJPRTiIaJBGKaxeQWGr" name="Page-1">
        <mxGraphModel dx="2014" dy="1566" grid="1" gridSize="10" guides="1" tooltips="1" connect="1" arrows="1" fold="1" page="1" pageScale="1" pageWidth="850" pageHeight="1100" math="0" shadow="0">
            <root>
                <mxCell id="0"/>
                <mxCell id="1" parent="0"/>
                <mxCell id="33" value="" style="rounded=0;whiteSpace=wrap;html=1;fillStyle=solid;fillColor=default;dashed=1;fontSize=35;strokeWidth=2;" vertex="1" parent="1">
                    <mxGeometry x="-130" y="-40" width="1840" height="620" as="geometry"/>
                </mxCell>
                <mxCell id="16" value="" style="group" vertex="1" connectable="0" parent="1">
                    <mxGeometry x="330.005" y="50" width="247.355" height="150" as="geometry"/>
                </mxCell>
                <mxCell id="17" value="" style="shape=curlyBracket;whiteSpace=wrap;html=1;rounded=1;labelPosition=left;verticalLabelPosition=middle;align=right;verticalAlign=middle;rotation=90;" vertex="1" parent="16">
                    <mxGeometry x="111.225" y="-71.13" width="20" height="242.45" as="geometry"/>
                </mxCell>
                <mxCell id="18" value="fs block" style="text;html=1;align=center;verticalAlign=middle;resizable=0;points=[];autosize=1;strokeColor=none;fillColor=none;" vertex="1" parent="16">
                    <mxGeometry x="91.225" width="60" height="30" as="geometry"/>
                </mxCell>
                <mxCell id="19" value="" style="group" vertex="1" connectable="0" parent="16">
                    <mxGeometry x="7.35499999999999" y="90" width="240" height="60" as="geometry"/>
                </mxCell>
                <mxCell id="20" value="sector" style="rounded=0;whiteSpace=wrap;html=1;" vertex="1" parent="19">
                    <mxGeometry width="60" height="60" as="geometry"/>
                </mxCell>
                <mxCell id="21" value="sector" style="rounded=0;whiteSpace=wrap;html=1;" vertex="1" parent="19">
                    <mxGeometry x="60" width="60" height="60" as="geometry"/>
                </mxCell>
                <mxCell id="22" value="sector" style="rounded=0;whiteSpace=wrap;html=1;" vertex="1" parent="19">
                    <mxGeometry x="120" width="60" height="60" as="geometry"/>
                </mxCell>
                <mxCell id="23" value="sector" style="rounded=0;whiteSpace=wrap;html=1;" vertex="1" parent="19">
                    <mxGeometry x="180" width="60" height="60" as="geometry"/>
                </mxCell>
                <mxCell id="15" value="" style="group" vertex="1" connectable="0" parent="1">
                    <mxGeometry x="82.64500000000001" y="50" width="247.355" height="150" as="geometry"/>
                </mxCell>
                <mxCell id="7" value="" style="shape=curlyBracket;whiteSpace=wrap;html=1;rounded=1;labelPosition=left;verticalLabelPosition=middle;align=right;verticalAlign=middle;rotation=90;" vertex="1" parent="15">
                    <mxGeometry x="111.225" y="-71.13" width="20" height="242.45" as="geometry"/>
                </mxCell>
                <mxCell id="8" value="fs block" style="text;html=1;align=center;verticalAlign=middle;resizable=0;points=[];autosize=1;strokeColor=none;fillColor=none;" vertex="1" parent="15">
                    <mxGeometry x="91.225" width="60" height="30" as="geometry"/>
                </mxCell>
                <mxCell id="9" value="" style="group" vertex="1" connectable="0" parent="15">
                    <mxGeometry x="7.35499999999999" y="90" width="240" height="60" as="geometry"/>
                </mxCell>
                <mxCell id="2" value="sector" style="rounded=0;whiteSpace=wrap;html=1;" vertex="1" parent="9">
                    <mxGeometry width="60" height="60" as="geometry"/>
                </mxCell>
                <mxCell id="3" value="sector" style="rounded=0;whiteSpace=wrap;html=1;" vertex="1" parent="9">
                    <mxGeometry x="60" width="60" height="60" as="geometry"/>
                </mxCell>
                <mxCell id="4" value="sector" style="rounded=0;whiteSpace=wrap;html=1;" vertex="1" parent="9">
                    <mxGeometry x="120" width="60" height="60" as="geometry"/>
                </mxCell>
                <mxCell id="5" value="sector" style="rounded=0;whiteSpace=wrap;html=1;" vertex="1" parent="9">
                    <mxGeometry x="180" width="60" height="60" as="geometry"/>
                </mxCell>
                <mxCell id="24" value="" style="group" vertex="1" connectable="0" parent="1">
                    <mxGeometry x="577.365" y="50" width="247.355" height="150" as="geometry"/>
                </mxCell>
                <mxCell id="25" value="" style="shape=curlyBracket;whiteSpace=wrap;html=1;rounded=1;labelPosition=left;verticalLabelPosition=middle;align=right;verticalAlign=middle;rotation=90;" vertex="1" parent="24">
                    <mxGeometry x="111.225" y="-71.13" width="20" height="242.45" as="geometry"/>
                </mxCell>
                <mxCell id="26" value="fs block" style="text;html=1;align=center;verticalAlign=middle;resizable=0;points=[];autosize=1;strokeColor=none;fillColor=none;" vertex="1" parent="24">
                    <mxGeometry x="91.225" width="60" height="30" as="geometry"/>
                </mxCell>
                <mxCell id="27" value="" style="group" vertex="1" connectable="0" parent="24">
                    <mxGeometry x="7.35499999999999" y="90" width="240" height="60" as="geometry"/>
                </mxCell>
                <mxCell id="28" value="sector" style="rounded=0;whiteSpace=wrap;html=1;" vertex="1" parent="27">
                    <mxGeometry width="60" height="60" as="geometry"/>
                </mxCell>
                <mxCell id="29" value="sector" style="rounded=0;whiteSpace=wrap;html=1;" vertex="1" parent="27">
                    <mxGeometry x="60" width="60" height="60" as="geometry"/>
                </mxCell>
                <mxCell id="30" value="sector" style="rounded=0;whiteSpace=wrap;html=1;" vertex="1" parent="27">
                    <mxGeometry x="120" width="60" height="60" as="geometry"/>
                </mxCell>
                <mxCell id="31" value="sector" style="rounded=0;whiteSpace=wrap;html=1;" vertex="1" parent="27">
                    <mxGeometry x="180" width="60" height="60" as="geometry"/>
                </mxCell>
                <mxCell id="43" value="&lt;font style=&quot;font-size: 36px;&quot;&gt;LBA address&lt;/font&gt;" style="text;html=1;align=center;verticalAlign=middle;resizable=0;points=[];autosize=1;strokeColor=none;fillColor=none;" vertex="1" parent="1">
                    <mxGeometry x="290" y="-15" width="230" height="60" as="geometry"/>
                </mxCell>
                <mxCell id="44" value="" style="group" vertex="1" connectable="0" parent="1">
                    <mxGeometry x="824.725" y="50" width="247.355" height="150" as="geometry"/>
                </mxCell>
                <mxCell id="45" value="" style="shape=curlyBracket;whiteSpace=wrap;html=1;rounded=1;labelPosition=left;verticalLabelPosition=middle;align=right;verticalAlign=middle;rotation=90;" vertex="1" parent="44">
                    <mxGeometry x="111.225" y="-71.13" width="20" height="242.45" as="geometry"/>
                </mxCell>
                <mxCell id="46" value="fs block" style="text;html=1;align=center;verticalAlign=middle;resizable=0;points=[];autosize=1;strokeColor=none;fillColor=none;" vertex="1" parent="44">
                    <mxGeometry x="91.225" width="60" height="30" as="geometry"/>
                </mxCell>
                <mxCell id="47" value="" style="group" vertex="1" connectable="0" parent="44">
                    <mxGeometry x="7.35499999999999" y="90" width="240" height="60" as="geometry"/>
                </mxCell>
                <mxCell id="48" value="sector" style="rounded=0;whiteSpace=wrap;html=1;" vertex="1" parent="47">
                    <mxGeometry width="60" height="60" as="geometry"/>
                </mxCell>
                <mxCell id="49" value="sector" style="rounded=0;whiteSpace=wrap;html=1;" vertex="1" parent="47">
                    <mxGeometry x="60" width="60" height="60" as="geometry"/>
                </mxCell>
                <mxCell id="50" value="sector" style="rounded=0;whiteSpace=wrap;html=1;" vertex="1" parent="47">
                    <mxGeometry x="120" width="60" height="60" as="geometry"/>
                </mxCell>
                <mxCell id="51" value="sector" style="rounded=0;whiteSpace=wrap;html=1;" vertex="1" parent="47">
                    <mxGeometry x="180" width="60" height="60" as="geometry"/>
                </mxCell>
                <mxCell id="55" value="&lt;font style=&quot;font-size: 24px;&quot;&gt;loff_t begin=0&lt;/font&gt;&lt;div&gt;&lt;font size=&quot;3&quot;&gt;loff_t end=3&lt;/font&gt;&lt;/div&gt;" style="text;html=1;align=center;verticalAlign=middle;resizable=0;points=[];autosize=1;strokeColor=none;fillColor=none;" vertex="1" parent="1">
                    <mxGeometry y="10" width="170" height="60" as="geometry"/>
                </mxCell>
                <mxCell id="56" value="" style="shape=curlyBracket;whiteSpace=wrap;html=1;rounded=1;flipH=1;labelPosition=right;verticalLabelPosition=middle;align=left;verticalAlign=middle;rotation=90;" vertex="1" parent="1">
                    <mxGeometry x="570" y="-250" width="20" height="970" as="geometry"/>
                </mxCell>
                <mxCell id="58" value="folio 1" style="rounded=0;whiteSpace=wrap;html=1;" vertex="1" parent="1">
                    <mxGeometry x="100" y="300" width="480" height="60" as="geometry"/>
                </mxCell>
                <mxCell id="59" value="folio 2" style="rounded=0;whiteSpace=wrap;html=1;" vertex="1" parent="1">
                    <mxGeometry x="590" y="300" width="460" height="60" as="geometry"/>
                </mxCell>
                <mxCell id="60" value="extent" style="swimlane;fontStyle=0;childLayout=stackLayout;horizontal=1;startSize=30;horizontalStack=0;resizeParent=1;resizeParentMax=0;resizeLast=0;collapsible=1;marginBottom=0;whiteSpace=wrap;html=1;" vertex="1" parent="1">
                    <mxGeometry x="-280" y="160" width="140" height="120" as="geometry"/>
                </mxCell>
                <mxCell id="61" value="start_file_index=0" style="text;strokeColor=none;fillColor=none;align=left;verticalAlign=middle;spacingLeft=4;spacingRight=4;overflow=hidden;points=[[0,0.5],[1,0.5]];portConstraint=eastwest;rotatable=0;whiteSpace=wrap;html=1;" vertex="1" parent="60">
                    <mxGeometry y="30" width="140" height="30" as="geometry"/>
                </mxCell>
                <mxCell id="62" value="start_blk_addr=100" style="text;strokeColor=none;fillColor=none;align=left;verticalAlign=middle;spacingLeft=4;spacingRight=4;overflow=hidden;points=[[0,0.5],[1,0.5]];portConstraint=eastwest;rotatable=0;whiteSpace=wrap;html=1;" vertex="1" parent="60">
                    <mxGeometry y="60" width="140" height="30" as="geometry"/>
                </mxCell>
                <mxCell id="63" value="blk_len(块为单位)" style="text;strokeColor=none;fillColor=none;align=left;verticalAlign=middle;spacingLeft=4;spacingRight=4;overflow=hidden;points=[[0,0.5],[1,0.5]];portConstraint=eastwest;rotatable=0;whiteSpace=wrap;html=1;" vertex="1" parent="60">
                    <mxGeometry y="90" width="140" height="30" as="geometry"/>
                </mxCell>
                <mxCell id="66" value="folio large" style="rounded=0;whiteSpace=wrap;html=1;" vertex="1" parent="1">
                    <mxGeometry x="100" y="380" width="1300" height="60" as="geometry"/>
                </mxCell>
                <mxCell id="67" value="iomap" style="swimlane;fontStyle=0;childLayout=stackLayout;horizontal=1;startSize=30;horizontalStack=0;resizeParent=1;resizeParentMax=0;resizeLast=0;collapsible=1;marginBottom=0;whiteSpace=wrap;html=1;" vertex="1" parent="1">
                    <mxGeometry x="-100" y="160" width="160" height="130" as="geometry"/>
                </mxCell>
                <mxCell id="68" value="start_file_pos=0(字节为单位)" style="text;strokeColor=none;fillColor=none;align=left;verticalAlign=middle;spacingLeft=4;spacingRight=4;overflow=hidden;points=[[0,0.5],[1,0.5]];portConstraint=eastwest;rotatable=0;whiteSpace=wrap;html=1;" vertex="1" parent="67">
                    <mxGeometry y="30" width="160" height="30" as="geometry"/>
                </mxCell>
                <mxCell id="69" value="start_lba_addr=100*4096" style="text;strokeColor=none;fillColor=none;align=left;verticalAlign=middle;spacingLeft=4;spacingRight=4;overflow=hidden;points=[[0,0.5],[1,0.5]];portConstraint=eastwest;rotatable=0;whiteSpace=wrap;html=1;" vertex="1" parent="67">
                    <mxGeometry y="60" width="160" height="30" as="geometry"/>
                </mxCell>
                <mxCell id="70" value="lba_len=4*4096" style="text;strokeColor=none;fillColor=none;align=left;verticalAlign=middle;spacingLeft=4;spacingRight=4;overflow=hidden;points=[[0,0.5],[1,0.5]];portConstraint=eastwest;rotatable=0;whiteSpace=wrap;html=1;" vertex="1" parent="67">
                    <mxGeometry y="90" width="160" height="40" as="geometry"/>
                </mxCell>
                <mxCell id="71" value="bio" style="swimlane;fontStyle=0;childLayout=stackLayout;horizontal=1;startSize=30;horizontalStack=0;resizeParent=1;resizeParentMax=0;resizeLast=0;collapsible=1;marginBottom=0;whiteSpace=wrap;html=1;" vertex="1" parent="1">
                    <mxGeometry x="-90" y="400" width="160" height="90" as="geometry"/>
                </mxCell>
                <mxCell id="72" value="start_page=large" style="text;strokeColor=none;fillColor=none;align=left;verticalAlign=middle;spacingLeft=4;spacingRight=4;overflow=hidden;points=[[0,0.5],[1,0.5]];portConstraint=eastwest;rotatable=0;whiteSpace=wrap;html=1;" vertex="1" parent="71">
                    <mxGeometry y="30" width="160" height="30" as="geometry"/>
                </mxCell>
                <mxCell id="73" value="start_lba_addr=100*4096" style="text;strokeColor=none;fillColor=none;align=left;verticalAlign=middle;spacingLeft=4;spacingRight=4;overflow=hidden;points=[[0,0.5],[1,0.5]];portConstraint=eastwest;rotatable=0;whiteSpace=wrap;html=1;" vertex="1" parent="71">
                    <mxGeometry y="60" width="160" height="30" as="geometry"/>
                </mxCell>
            </root>
        </mxGraphModel>
    </diagram>
</mxfile>